mtllib cornell_box.mtl
v -1.00000 0.00000 1.00000
v 1.00000 0.00000 1.00000
v 1.00000 0.00000 -1.00000
v -1.00000 0.00000 -1.00000
v -1.00000 2.00000 -1.00000
v 1.00000 2.00000 -1.00000
v 1.00000 2.00000 1.00000
v -1.00000 2.00000 1.00000
v -1.00000 0.00000 -1.00000
v 1.00000 0.00000 -1.00000
v 1.00000 2.00000 -1.00000
v -1.00000 2.00000 -1.00000
v -1.00000 0.00000 1.00000
v -1.00000 0.00000 -1.00000
v -1.00000 2.00000 -1.00000
v -1.00000 2.00000 1.00000
v 1.00000 0.00000 -1.00000
v 1.00000 0.00000 1.00000
v 1.00000 2.00000 1.00000
v 1.00000 2.00000 -1.00000
v -0.25000 1.98000 0.25000
v -0.25000 1.98000 -0.25000
v 0.25000 1.98000 -0.25000
v 0.25000 1.98000 0.25000
v -0.55169 0.00000 0.02326
v 0.02326 0.00000 -0.14831
v 0.02326 1.20000 -0.14831
v -0.55169 1.20000 0.02326
v -0.14831 0.00000 -0.72326
v -0.72326 0.00000 -0.55169
v -0.72326 1.20000 -0.55169
v -0.14831 1.20000 -0.72326
v -0.72326 1.20000 -0.55169
v -0.55169 1.20000 0.02326
v 0.02326 1.20000 -0.14831
v -0.14831 1.20000 -0.72326
v -0.72326 0.00000 -0.55169
v -0.14831 0.00000 -0.72326
v 0.02326 0.00000 -0.14831
v -0.55169 0.00000 0.02326
v -0.14831 0.00000 -0.72326
v -0.14831 1.20000 -0.72326
v 0.02326 1.20000 -0.14831
v 0.02326 0.00000 -0.14831
v -0.72326 0.00000 -0.55169
v -0.55169 0.00000 0.02326
v -0.55169 1.20000 0.02326
v -0.72326 1.20000 -0.55169
v 0.02674 0.00000 0.50169
v 0.60169 0.00000 0.67326
v 0.60169 0.60000 0.67326
v 0.02674 0.60000 0.50169
v 0.77326 0.00000 0.09831
v 0.19831 0.00000 -0.07326
v 0.19831 0.60000 -0.07326
v 0.77326 0.60000 0.09831
v 0.19831 0.60000 -0.07326
v 0.02674 0.60000 0.50169
v 0.60169 0.60000 0.67326
v 0.77326 0.60000 0.09831
v 0.19831 0.00000 -0.07326
v 0.77326 0.00000 0.09831
v 0.60169 0.00000 0.67326
v 0.02674 0.00000 0.50169
v 0.77326 0.00000 0.09831
v 0.77326 0.60000 0.09831
v 0.60169 0.60000 0.67326
v 0.60169 0.00000 0.67326
v 0.19831 0.00000 -0.07326
v 0.02674 0.00000 0.50169
v 0.02674 0.60000 0.50169
v 0.19831 0.60000 -0.07326
vn 0.0000 1.0000 0.0000
vn 0.0000 -1.0000 0.0000
vn 0.0000 0.0000 1.0000
vn 1.0000 0.0000 0.0000
vn -1.0000 0.0000 0.0000
vn 0.0000 -1.0000 0.0000
vn 0.2860 0.0000 0.9582
vn -0.2860 0.0000 -0.9582
vn 0.0000 1.0000 0.0000
vn 0.0000 -1.0000 0.0000
vn 0.9582 0.0000 -0.2860
vn -0.9582 0.0000 0.2860
vn -0.2860 0.0000 0.9582
vn 0.2860 0.0000 -0.9582
vn 0.0000 1.0000 0.0000
vn 0.0000 -1.0000 0.0000
vn 0.9582 0.0000 0.2860
vn -0.9582 0.0000 -0.2860
usemtl white
f 1//1 2//1 3//1
f 1//1 3//1 4//1
f 5//2 6//2 7//2
f 5//2 7//2 8//2
f 9//3 10//3 11//3
f 9//3 11//3 12//3
usemtl red
f 13//4 14//4 15//4
f 13//4 15//4 16//4
usemtl green
f 17//5 18//5 19//5
f 17//5 19//5 20//5
usemtl light
f 21//6 22//6 23//6
f 21//6 23//6 24//6
usemtl white
f 25//7 26//7 27//7
f 25//7 27//7 28//7
f 29//8 30//8 31//8
f 29//8 31//8 32//8
f 33//9 34//9 35//9
f 33//9 35//9 36//9
f 37//10 38//10 39//10
f 37//10 39//10 40//10
f 41//11 42//11 43//11
f 41//11 43//11 44//11
f 45//12 46//12 47//12
f 45//12 47//12 48//12
f 49//13 50//13 51//13
f 49//13 51//13 52//13
f 53//14 54//14 55//14
f 53//14 55//14 56//14
f 57//15 58//15 59//15
f 57//15 59//15 60//15
f 61//16 62//16 63//16
f 61//16 63//16 64//16
f 65//17 66//17 67//17
f 65//17 67//17 68//17
f 69//18 70//18 71//18
f 69//18 71//18 72//18
